name C:\Users\u0101727\Documents\MyRepositories\upper-imu-dc\Results\main_tracking\Case_19\kinematics.mot
datacolumns 10
datarows 52
range 3.45000000 3.96000000
endheader 
time	clav_prot	clav_elev	scapula_abduction	scapula_elevation	scapula_upward_rot	scapula_winging	plane_elv	shoulder_elv	axial_rot	
          3.45000000	        -47.40997629	          4.65196923	          0.62390485	         -4.17013296	         89.34493908	        -11.47742081	         40.87527314	         87.37418631	        -24.77262200	
          3.46000000	        -47.40593502	          4.63744401	          0.59561040	         -4.18777130	         89.29163231	        -11.47936635	         40.98794176	         87.40718363	        -24.56753060	
          3.47000000	        -47.40223542	          4.62895068	          0.56048225	         -4.20230741	         89.23137945	        -11.48508840	         41.10778736	         87.44182462	        -24.34167669	
          3.48000000	        -47.39742714	          4.62481579	          0.52330870	         -4.21434946	         89.16699043	        -11.49242159	         41.22892114	         87.47588787	        -24.11741575	
          3.49000000	        -47.39047512	          4.62373460	          0.48730580	         -4.22445559	         89.10015886	        -11.49983988	         41.34723014	         87.50807997	        -23.90951251	
          3.50000000	        -47.38058004	          4.62467950	          0.45452072	         -4.23316308	         89.03157835	        -11.50627496	         41.46006455	         87.53803073	        -23.72617670	
          3.51000000	        -47.36700071	          4.62677991	          0.42638146	         -4.24100772	         88.96126037	        -11.51088736	         41.56569073	         87.56610988	        -23.57135554	
          3.52000000	        -47.34901920	          4.62926550	          0.40400665	         -4.24850937	         88.88886875	        -11.51295778	         41.66289082	         87.59316041	        -23.44680612	
          3.53000000	        -47.32608289	          4.63148417	          0.38813195	         -4.25613602	         88.81395408	        -11.51194863	         41.75088735	         87.62023158	        -23.35317736	
          3.54000000	        -47.29804330	          4.63294279	          0.37878953	         -4.26427695	         88.73607532	        -11.50766184	         41.82951602	         87.64835827	        -23.29022019	
          3.55000000	        -47.26535078	          4.63331136	          0.37502115	         -4.27324756	         88.65485476	        -11.50036371	         41.89942111	         87.67841022	        -23.25673791	
          3.56000000	        -47.22910106	          4.63237985	          0.37483507	         -4.28331764	         88.57001367	        -11.49079147	         41.96207797	         87.71101746	        -23.25076139	
          3.57000000	        -47.19090437	          4.63000766	          0.37546062	         -4.29473053	         88.48140752	        -11.48003390	         42.01957270	         87.74656775	        -23.27006532	
          3.58000000	        -47.15261920	          4.62610311	          0.37381690	         -4.30769211	         88.38905248	        -11.46933203	         42.07420247	         87.78526319	        -23.31282509	
          3.59000000	        -47.11604636	          4.62065011	          0.36701353	         -4.32232903	         88.29311784	        -11.45987878	         42.12804918	         87.82721484	        -23.37804073	
          3.60000000	        -47.08266288	          4.61375863	          0.35275763	         -4.33863850	         88.19388684	        -11.45266338	         42.18264489	         87.87253953	        -23.46561715	
          3.61000000	        -47.05342820	          4.60570420	          0.32961948	         -4.35645575	         88.09168629	        -11.44836918	         42.23878519	         87.92144590	        -23.57615024	
          3.62000000	        -47.02872756	          4.59694880	          0.29706494	         -4.37544687	         87.98680616	        -11.44736146	         42.29654692	         87.97426814	        -23.71045726	
          3.63000000	        -47.00844347	          4.58814576	          0.25526631	         -4.39512459	         87.87940554	        -11.44975887	         42.35550656	         88.03146003	        -23.86883171	
          3.64000000	        -46.99211121	          4.58012505	          0.20478779	         -4.41488196	         87.76943418	        -11.45555062	         42.41508598	         88.09354656	        -24.05000842	
          3.65000000	        -46.97912459	          4.57388446	          0.14615730	         -4.43403097	         87.65651562	        -11.46475551	         42.47499124	         88.16111150	        -24.25007905	
          3.66000000	        -46.96892571	          4.57055571	          0.07949269	         -4.45185229	         87.53986065	        -11.47755315	         42.53559462	         88.23479164	        -24.46176994	
          3.67000000	        -46.96113986	          4.57132507	          0.00428143	         -4.46766143	         87.41825231	        -11.49434620	         42.59816457	         88.31525575	        -24.67435997	
          3.68000000	        -46.95564195	          4.57730383	         -0.08064661	         -4.48089044	         87.29012435	        -11.51573940	         42.66489769	         88.40315040	        -24.87439729	
          3.69000000	        -46.95253956	          4.58935608	         -0.17691827	         -4.49117753	         87.15374870	        -11.54242595	         42.73871290	         88.49899643	        -25.04732008	
          3.70000000	        -46.95205550	          4.60790496	         -0.28616651	         -4.49844922	         87.00752894	        -11.57497962	         42.82278435	         88.60303713	        -25.17996020	
          3.71000000	        -46.95432263	          4.63276270	         -0.40939481	         -4.50297246	         86.85035291	        -11.61358789	         42.91987729	         88.71506602	        -25.26353864	
          3.72000000	        -46.95917439	          4.66306281	         -0.54639248	         -4.50534500	         86.68189428	        -11.65783286	         43.03171496	         88.83429170	        -25.29616621	
          3.73000000	        -46.96604391	          4.69737205	         -0.69549990	         -4.50639710	         86.50273484	        -11.70664832	         43.15866161	         88.95930476	        -25.28368806	
          3.74000000	        -46.97401338	          4.73399392	         -0.85384036	         -4.50700724	         86.31424641	        -11.75849437	         43.29984124	         89.08818387	        -25.23838393	
          3.75000000	        -46.98196451	          4.77139024	         -1.01789767	         -4.50787210	         86.11826570	        -11.81168037	         43.45359682	         89.21873346	        -25.17594965	
          3.76000000	        -46.98875551	          4.80859780	         -1.18422005	         -4.50929519	         85.91665774	        -11.86472044	         43.61810098	         89.34880223	        -25.11169968	
          3.77000000	        -46.99336632	          4.84551171	         -1.35003643	         -4.51106035	         85.71088934	        -11.91661189	         43.79192874	         89.47660431	        -25.05705634	
          3.78000000	        -46.99497974	          4.88294639	         -1.51363001	         -4.51243400	         85.50172468	        -11.96696199	         43.97444894	         89.60096519	        -25.01721726	
          3.79000000	        -46.99299479	          4.92245870	         -1.67440420	         -4.51229788	         85.28911700	        -12.01594348	         44.16595690	         89.72143378	        -24.99050254	
          3.80000000	        -46.98697838	          4.96598872	         -1.83264654	         -4.50937344	         85.07231794	        -12.06410157	         44.36752668	         89.83824006	        -24.96947609	
          3.81000000	        -46.97657089	          5.01542215	         -1.98906804	         -4.50247465	         84.85016426	        -12.11207124	         44.58062948	         89.95212123	        -24.94348518	
          3.82000000	        -46.96138860	          5.07218983	         -2.14427607	         -4.49072536	         84.62145691	        -12.16029368	         44.80664482	         90.06406293	        -24.90187859	
          3.83000000	        -46.94096329	          5.13698775	         -2.29834208	         -4.47370095	         84.38532739	        -12.20881007	         45.04642291	         90.17502300	        -24.83703218	
          3.84000000	        -46.91475335	          5.20965456	         -2.45059600	         -4.45148250	         84.14150019	        -12.25718551	         45.30004059	         90.28570118	        -24.74641401	
          3.85000000	        -46.88222368	          5.28920136	         -2.59968824	         -4.42463385	         83.89038796	        -12.30456859	         45.56681704	         90.39641367	        -24.63324174	
          3.86000000	        -46.84296350	          5.37396113	         -2.74386611	         -4.39412097	         83.63301475	        -12.34985102	         45.84556001	         90.50709272	        -24.50574390	
          3.87000000	        -46.79680737	          5.46181973	         -2.88137340	         -4.36119107	         83.37080437	        -12.39187990	         46.13495504	         90.61739312	        -24.37533459	
          3.88000000	        -46.74392620	          5.55048956	         -3.01085893	         -4.32722621	         83.10530618	        -12.42967076	         46.43397574	         90.72685526	        -24.25426129	
          3.89000000	        -46.68485739	          5.63779118	         -3.13168242	         -4.29358391	         82.83793190	        -12.46257362	         46.74219526	         90.83507256	        -24.15333239	
          3.90000000	        -46.62046835	          5.72191947	         -3.24405862	         -4.26143333	         82.56976408	        -12.49037037	         47.05992566	         90.94181232	        -24.08016422	
          3.91000000	        -46.55185803	          5.80167297	         -3.34901678	         -4.23159916	         82.30147021	        -12.51329517	         47.38816069	         91.04706093	        -24.03823080	
          3.92000000	        -46.48021400	          5.87662128	         -3.44819748	         -4.20443236	         82.03332125	        -12.53198422	         47.72835273	         91.15099220	        -24.02677993	
          3.93000000	        -46.40663714	          5.94717117	         -3.54352201	         -4.17974056	         81.76527909	        -12.54735763	         48.08208493	         91.25389180	        -24.04148508	
          3.94000000	        -46.33194308	          6.01448433	         -3.63676646	         -4.15681538	         81.49711279	        -12.56043183	         48.45070747	         91.35607551	        -24.07564099	
          3.95000000	        -46.25646873	          6.08022779	         -3.72911143	         -4.13457622	         81.22850334	        -12.57208268	         48.83502214	         91.45782835	        -24.12162091	
          3.96000000	        -46.17992600	          6.14619113	         -3.82076671	         -4.11181344	         80.95910660	        -12.58280441	         49.23509507	         91.55937542	        -24.17230022	
